  <svg xmlns="http://www.w3.org/2000/svg" version="1.1" xmlns:xlink="http://www.w3.org/1999/xlink"
                xmlns:svgjs="http://svgjs.com/svgjs" width="512" height="512" x="0" y="0" viewBox="0 0 152 152"
                style="enable-background:new 0 0 512 512" xml:space="preserve" class="my-logocom">
                <g>
                    <linearGradient xmlns="http://www.w3.org/2000/svg" id="Icon_1_" gradientUnits="userSpaceOnUse"
                        x1="30.328" x2="107.426" y1="25.2" y2="102.298">
                        <stop stop-opacity="1" stop-color="#ff0077" offset="0.3938223938223938"></stop>
                        <stop stop-opacity="1" stop-color="#ff9900" offset="1"></stop>
                    </linearGradient>
                    <path xmlns="http://www.w3.org/2000/svg" id="Icon"
                        d="m97.6 59c7.2-10.1 26.2-31.9 37.9-27.7 2.6.7 4.6 2.8 5.2 5.5 1.6 6.9-4.1 11.3-14.6 28.6-13 21.1-17 35.2-22.8 40.9-11.3 12.7-34.2 7.1-31.5-27.4-13.7 22.3-17 49.4-40.1 44.8-24.2-6.5-23-63.5-17.4-78.2.5-1.8 1.2-3.6 2.1-5.3 5.7-11.1 19-11.2 24.7-4.6s4.1 20.6 3.3 29.7c6-10.4 16.4-25.3 26-32.7 15-11.1 32.3-3.9 27.2 26.4z"
                        fill="url(#Icon_1_)" data-original="url(#Icon_1_)"></path>
                </g>
            </svg>